<svg t="1735192696304" class="icon" viewBox="0 0 1024 1024" version="1.1" xmlns="http://www.w3.org/2000/svg"
     p-id="15642" width="30" height="30">
    <path d="M512.60978576 883.51300393c-179.15792997 0-304.00033945-50.25028416-304.00033946-95.34465894H184.61463775c0 77.51711186 168.98492443 119.33946751 327.99514801 119.33946751s327.99514723-41.82235566 327.99514724-119.33946751H816.63987017c0 45.10429029-124.87215523 95.34465972-304.03008441 95.34465894zM839.03832963 235.83165501C839.03832963 158.31454316 670.04349047 116.4921875 511.0431824 116.4921875S183.05794989 158.31454316 183.05794989 235.83165501v552.32677448h23.99480857v-134.84685608c50.83528193 48.33664897 181.07156515 74.07653378 305.5570273 74.07653377 123.50385578 0 252.64946675-25.3333615 304.33745578-72.92636925v133.69669156h23.99480857V235.83165501zM511.0431824 140.48699607c179.15792997 0 304.00033945 50.25028416 304.00033867 95.34465894s-124.84240949 95.34465972-304.00033867 95.34465971S207.05275846 280.9359453 207.05275846 235.83165501 331.89516793 140.48699607 511.0431824 140.48699607z m305.90405914 467.53189786H816.63987017c0 45.10429029-124.84240949 95.34465972-304.00033944 95.34465973S208.63919204 653.11326873 208.63919204 608.01889393h-1.58643358v-140.79598261c50.83528193 48.33664897 181.07156515 74.07653378 305.5570273 74.07653454 123.50385578 0 252.64946675-25.3333615 304.33745578-72.92637002z m0-186.08866209H816.63987017c0 45.10429029-124.84240949 95.34465972-304.00033944 95.34465972S208.6094463 467.02460741 208.6094463 421.88065586H207.05275846V282.56204014c51.91603947 47.38478834 180.77410929 72.60908315 303.99042394 72.60908315 124.77300327 0 255.31665788-25.85886777 305.90405914-74.3640757z"
          p-id="15643" fill="#7180e7"></path>
</svg>