<svg t="1737361742276" class="icon" viewBox="0 0 1024 1024" version="1.1" xmlns="http://www.w3.org/2000/svg" p-id="4026" width="64" height="64"><path d="M727.997156 280.122906m-63.99975 0a63.99975 63.99975 0 1 0 127.9995 0 63.99975 63.99975 0 1 0-127.9995 0Z" p-id="4027" fill="#1296db"></path><path d="M1012.952043 331.872704c-21.359917-54.387788-60.527764-132.861481-125.829508-197.853228-65.069746-64.767747-142.711443-102.815598-196.387233-123.331518-58.92777-22.521912-125.889508-8.325967-170.589334 36.163859l-157.075386 156.339389c-46.561818 46.341819-59.981766 117.64954-33.39587 177.439307a739.041113 739.041113 0 0 0 26.789896 54.205788L11.715954 779.582955A39.999844 39.999844 0 0 0 0 807.868844v175.999313c0 22.091914 17.90793 39.999844 39.999844 39.999844h175.999312c22.091914 0 39.999844-17.90793 39.999844-39.999844v-71.999719l71.999719-0.002c22.091914 0 39.999844-17.90793 39.999844-39.999844v-71.997718h71.999718c22.091914 0 39.999844-17.90793 39.999844-39.999844s-17.90793-39.999844-39.999844-39.999844h-111.999562c-22.091914 0-39.999844 17.90793-39.999844 39.999844v71.997719l-71.999719 0.002c-22.091914 0-39.999844 17.90793-39.999843 39.999843v71.999719H79.999688V824.43678l354.708614-354.706615a39.999844 39.999844 0 0 0 5.915977-49.033808c-13.861946-22.847911-26.595896-47.263815-37.845852-72.569717-13.197948-29.681884-6.473975-65.139746 16.731934-88.237655l157.073387-156.337389c22.425912-22.317913 56.021781-29.435885 85.595665-18.13593 46.443819 17.751931 113.379557 50.427803 168.511342 105.303589 55.469783 55.207784 89.239651 123.133519 107.799579 170.393334a79.43169 79.43169 0 0 1-17.92993 85.373667l-158.971379 158.227382c-23.14991 23.03791-57.701775 29.773884-88.031656 17.159933-25.013902-10.403959-49.239808-22.763911-71.999719-36.733857-18.825926-11.555955-43.45783-5.659978-55.013785 13.167949-11.555955 18.827926-5.661978 43.45983 13.165949 55.015785 26.303897 16.143937 54.271788 30.413881 83.123675 42.413834 60.283765 25.077902 129.049496 11.599955 175.189316-34.321866l158.971379-158.225382c45.089824-44.877825 59.203769-112.123562 35.957859-171.31733z" p-id="4028" fill="#1296db"></path></svg>