<svg t="1736236056143" class="icon" viewBox="0 0 1024 1024" version="1.1" xmlns="http://www.w3.org/2000/svg" p-id="8907" width="64" height="64"><path d="M853.333333 896a85.333333 85.333333 0 0 1-85.333333 85.333333H256a85.333333 85.333333 0 0 1-85.333333-85.333333V128a85.333333 85.333333 0 0 1 85.333333-85.333333h512a85.333333 85.333333 0 0 1 85.333333 85.333333v768z m-42.666666-213.333333H213.333333v213.333333a42.666667 42.666667 0 0 0 37.674667 42.368L256 938.666667h512a42.666667 42.666667 0 0 0 42.368-37.674667L810.666667 896v-213.333333zM341.333333 768a42.666667 42.666667 0 1 1 0 85.333333 42.666667 42.666667 0 0 1 0-85.333333z m469.333334-384H213.333333v256h597.333334V384zM341.333333 469.333333a42.666667 42.666667 0 1 1 0 85.333334 42.666667 42.666667 0 0 1 0-85.333334z m426.666667-384H256a42.666667 42.666667 0 0 0-42.368 37.674667L213.333333 128v213.333333h597.333334V128a42.666667 42.666667 0 0 0-37.674667-42.368L768 85.333333zM341.333333 170.666667a42.666667 42.666667 0 1 1 0 85.333333 42.666667 42.666667 0 0 1 0-85.333333z" fill="#d81e06" p-id="8908"></path></svg>